<svg width="229" height="64" viewBox="0 0 229 64" fill="none" xmlns="http://www.w3.org/2000/svg">
<g filter="url(#filter0_d_11_246)">
<rect width="225" height="60" fill="#ECEBBD" shape-rendering="crispEdges"/>
<rect x="0.5" y="0.5" width="224" height="59" stroke="#1A0000" shape-rendering="crispEdges"/>
<path d="M55.3728 37.24C54.4261 37.24 53.5528 37.0667 52.7528 36.72C51.9661 36.36 51.3195 35.8533 50.8128 35.2L52.6128 33.04C52.9995 33.5467 53.4061 33.9333 53.8328 34.2C54.2595 34.4533 54.7195 34.58 55.2128 34.58C56.5328 34.58 57.1928 33.8067 57.1928 32.26V25.6H52.2728V23H60.4128V32.08C60.4128 33.8133 59.9861 35.1067 59.1328 35.96C58.2795 36.8133 57.0261 37.24 55.3728 37.24ZM68.7331 37.16C67.5065 37.16 66.4265 36.92 65.4931 36.44C64.5731 35.96 63.8598 35.3067 63.3531 34.48C62.8465 33.64 62.5931 32.6867 62.5931 31.62C62.5931 30.54 62.8398 29.5867 63.3331 28.76C63.8398 27.92 64.5265 27.2667 65.3931 26.8C66.2598 26.32 67.2398 26.08 68.3331 26.08C69.3865 26.08 70.3331 26.3067 71.1731 26.76C72.0265 27.2 72.6998 27.84 73.1931 28.68C73.6865 29.5067 73.9331 30.5 73.9331 31.66C73.9331 31.78 73.9265 31.92 73.9131 32.08C73.8998 32.2267 73.8865 32.3667 73.8731 32.5H65.1331V30.68H72.2331L71.0331 31.22C71.0331 30.66 70.9198 30.1733 70.6931 29.76C70.4665 29.3467 70.1531 29.0267 69.7531 28.8C69.3531 28.56 68.8865 28.44 68.3531 28.44C67.8198 28.44 67.3465 28.56 66.9331 28.8C66.5331 29.0267 66.2198 29.3533 65.9931 29.78C65.7665 30.1933 65.6531 30.6867 65.6531 31.26V31.74C65.6531 32.3267 65.7798 32.8467 66.0331 33.3C66.2998 33.74 66.6665 34.08 67.1331 34.32C67.6131 34.5467 68.1731 34.66 68.8131 34.66C69.3865 34.66 69.8865 34.5733 70.3131 34.4C70.7531 34.2267 71.1531 33.9667 71.5131 33.62L73.1731 35.42C72.6798 35.98 72.0598 36.4133 71.3131 36.72C70.5665 37.0133 69.7065 37.16 68.7331 37.16ZM95.4544 26.08C96.3077 26.08 97.061 26.2533 97.7144 26.6C98.381 26.9333 98.901 27.4533 99.2744 28.16C99.661 28.8533 99.8544 29.7467 99.8544 30.84V37H96.7344V31.32C96.7344 30.4533 96.5544 29.8133 96.1944 29.4C95.8344 28.9867 95.3277 28.78 94.6744 28.78C94.221 28.78 93.8144 28.8867 93.4544 29.1C93.0944 29.3 92.8144 29.6067 92.6144 30.02C92.4144 30.4333 92.3144 30.96 92.3144 31.6V37H89.1944V31.32C89.1944 30.4533 89.0144 29.8133 88.6544 29.4C88.3077 28.9867 87.8077 28.78 87.1544 28.78C86.701 28.78 86.2944 28.8867 85.9344 29.1C85.5744 29.3 85.2944 29.6067 85.0944 30.02C84.8944 30.4333 84.7944 30.96 84.7944 31.6V37H81.6744V26.24H84.6544V29.18L84.0944 28.32C84.4677 27.5867 84.9944 27.0333 85.6744 26.66C86.3677 26.2733 87.1544 26.08 88.0344 26.08C89.021 26.08 89.881 26.3333 90.6144 26.84C91.361 27.3333 91.8544 28.0933 92.0944 29.12L90.9944 28.82C91.3544 27.98 91.9277 27.3133 92.7144 26.82C93.5144 26.3267 94.4277 26.08 95.4544 26.08ZM102.052 28.8L103.372 24L103.812 25.82C103.239 25.82 102.766 25.6533 102.392 25.32C102.032 24.9733 101.852 24.5067 101.852 23.92C101.852 23.3467 102.039 22.8867 102.412 22.54C102.786 22.18 103.246 22 103.792 22C104.352 22 104.812 22.18 105.172 22.54C105.532 22.8867 105.712 23.3467 105.712 23.92C105.712 24.0933 105.699 24.2667 105.672 24.44C105.659 24.6 105.612 24.7933 105.532 25.02C105.466 25.2467 105.352 25.5467 105.192 25.92L104.032 28.8H102.052ZM107.827 37V26.24H110.947V37H107.827ZM109.387 24.74C108.813 24.74 108.347 24.5733 107.987 24.24C107.627 23.9067 107.447 23.4933 107.447 23C107.447 22.5067 107.627 22.0933 107.987 21.76C108.347 21.4267 108.813 21.26 109.387 21.26C109.96 21.26 110.427 21.42 110.787 21.74C111.147 22.0467 111.327 22.4467 111.327 22.94C111.327 23.46 111.147 23.8933 110.787 24.24C110.44 24.5733 109.973 24.74 109.387 24.74ZM120.382 26.08C121.236 26.08 121.996 26.2533 122.662 26.6C123.342 26.9333 123.876 27.4533 124.262 28.16C124.649 28.8533 124.842 29.7467 124.842 30.84V37H121.722V31.32C121.722 30.4533 121.529 29.8133 121.142 29.4C120.769 28.9867 120.236 28.78 119.542 28.78C119.049 28.78 118.602 28.8867 118.202 29.1C117.816 29.3 117.509 29.6133 117.282 30.04C117.069 30.4667 116.962 31.0133 116.962 31.68V37H113.842V26.24H116.822V29.22L116.262 28.32C116.649 27.6 117.202 27.0467 117.922 26.66C118.642 26.2733 119.462 26.08 120.382 26.08ZM131.29 37.16C130.37 37.16 129.484 37.0533 128.63 36.84C127.79 36.6133 127.124 36.3333 126.63 36L127.67 33.76C128.164 34.0667 128.744 34.32 129.41 34.52C130.09 34.7067 130.757 34.8 131.41 34.8C132.13 34.8 132.637 34.7133 132.93 34.54C133.237 34.3667 133.39 34.1267 133.39 33.82C133.39 33.5667 133.27 33.38 133.03 33.26C132.804 33.1267 132.497 33.0267 132.11 32.96C131.724 32.8933 131.297 32.8267 130.83 32.76C130.377 32.6933 129.917 32.6067 129.45 32.5C128.984 32.38 128.557 32.2067 128.17 31.98C127.784 31.7533 127.47 31.4467 127.23 31.06C127.004 30.6733 126.89 30.1733 126.89 29.56C126.89 28.88 127.084 28.28 127.47 27.76C127.87 27.24 128.444 26.8333 129.19 26.54C129.937 26.2333 130.83 26.08 131.87 26.08C132.604 26.08 133.35 26.16 134.11 26.32C134.87 26.48 135.504 26.7133 136.01 27.02L134.97 29.24C134.45 28.9333 133.924 28.7267 133.39 28.62C132.87 28.5 132.364 28.44 131.87 28.44C131.177 28.44 130.67 28.5333 130.35 28.72C130.03 28.9067 129.87 29.1467 129.87 29.44C129.87 29.7067 129.984 29.9067 130.21 30.04C130.45 30.1733 130.764 30.28 131.15 30.36C131.537 30.44 131.957 30.5133 132.41 30.58C132.877 30.6333 133.344 30.72 133.81 30.84C134.277 30.96 134.697 31.1333 135.07 31.36C135.457 31.5733 135.77 31.8733 136.01 32.26C136.25 32.6333 136.37 33.1267 136.37 33.74C136.37 34.4067 136.17 35 135.77 35.52C135.37 36.0267 134.79 36.4267 134.03 36.72C133.284 37.0133 132.37 37.16 131.29 37.16ZM143.495 37.16C142.335 37.16 141.302 36.9267 140.395 36.46C139.489 35.98 138.775 35.32 138.255 34.48C137.749 33.64 137.495 32.6867 137.495 31.62C137.495 30.54 137.749 29.5867 138.255 28.76C138.775 27.92 139.489 27.2667 140.395 26.8C141.302 26.32 142.335 26.08 143.495 26.08C144.629 26.08 145.615 26.32 146.455 26.8C147.295 27.2667 147.915 27.94 148.315 28.82L145.895 30.12C145.615 29.6133 145.262 29.24 144.835 29C144.422 28.76 143.969 28.64 143.475 28.64C142.942 28.64 142.462 28.76 142.035 29C141.609 29.24 141.269 29.58 141.015 30.02C140.775 30.46 140.655 30.9933 140.655 31.62C140.655 32.2467 140.775 32.78 141.015 33.22C141.269 33.66 141.609 34 142.035 34.24C142.462 34.48 142.942 34.6 143.475 34.6C143.969 34.6 144.422 34.4867 144.835 34.26C145.262 34.02 145.615 33.64 145.895 33.12L148.315 34.44C147.915 35.3067 147.295 35.98 146.455 36.46C145.615 36.9267 144.629 37.16 143.495 37.16ZM150.112 37V26.24H153.092V29.28L152.672 28.4C152.992 27.64 153.505 27.0667 154.212 26.68C154.919 26.28 155.779 26.08 156.792 26.08V28.96C156.659 28.9467 156.539 28.94 156.432 28.94C156.325 28.9267 156.212 28.92 156.092 28.92C155.239 28.92 154.545 29.1667 154.012 29.66C153.492 30.14 153.232 30.8933 153.232 31.92V37H150.112ZM158.667 37V26.24H161.787V37H158.667ZM160.227 24.74C159.653 24.74 159.187 24.5733 158.827 24.24C158.467 23.9067 158.287 23.4933 158.287 23C158.287 22.5067 158.467 22.0933 158.827 21.76C159.187 21.4267 159.653 21.26 160.227 21.26C160.8 21.26 161.267 21.42 161.627 21.74C161.987 22.0467 162.167 22.4467 162.167 22.94C162.167 23.46 161.987 23.8933 161.627 24.24C161.28 24.5733 160.813 24.74 160.227 24.74ZM168.302 37.16C167.382 37.16 166.496 37.0533 165.642 36.84C164.802 36.6133 164.136 36.3333 163.642 36L164.682 33.76C165.176 34.0667 165.756 34.32 166.422 34.52C167.102 34.7067 167.769 34.8 168.422 34.8C169.142 34.8 169.649 34.7133 169.942 34.54C170.249 34.3667 170.402 34.1267 170.402 33.82C170.402 33.5667 170.282 33.38 170.042 33.26C169.816 33.1267 169.509 33.0267 169.122 32.96C168.736 32.8933 168.309 32.8267 167.842 32.76C167.389 32.6933 166.929 32.6067 166.462 32.5C165.996 32.38 165.569 32.2067 165.182 31.98C164.796 31.7533 164.482 31.4467 164.242 31.06C164.016 30.6733 163.902 30.1733 163.902 29.56C163.902 28.88 164.096 28.28 164.482 27.76C164.882 27.24 165.456 26.8333 166.202 26.54C166.949 26.2333 167.842 26.08 168.882 26.08C169.616 26.08 170.362 26.16 171.122 26.32C171.882 26.48 172.516 26.7133 173.022 27.02L171.982 29.24C171.462 28.9333 170.936 28.7267 170.402 28.62C169.882 28.5 169.376 28.44 168.882 28.44C168.189 28.44 167.682 28.5333 167.362 28.72C167.042 28.9067 166.882 29.1467 166.882 29.44C166.882 29.7067 166.996 29.9067 167.222 30.04C167.462 30.1733 167.776 30.28 168.162 30.36C168.549 30.44 168.969 30.5133 169.422 30.58C169.889 30.6333 170.356 30.72 170.822 30.84C171.289 30.96 171.709 31.1333 172.082 31.36C172.469 31.5733 172.782 31.8733 173.022 32.26C173.262 32.6333 173.382 33.1267 173.382 33.74C173.382 34.4067 173.182 35 172.782 35.52C172.382 36.0267 171.802 36.4267 171.042 36.72C170.296 37.0133 169.382 37.16 168.302 37.16Z" fill="#23221E"/>
</g>
<defs>
<filter id="filter0_d_11_246" x="0" y="0" width="229" height="64" filterUnits="userSpaceOnUse" color-interpolation-filters="sRGB">
<feFlood flood-opacity="0" result="BackgroundImageFix"/>
<feColorMatrix in="SourceAlpha" type="matrix" values="0 0 0 0 0 0 0 0 0 0 0 0 0 0 0 0 0 0 127 0" result="hardAlpha"/>
<feOffset dx="4" dy="4"/>
<feComposite in2="hardAlpha" operator="out"/>
<feColorMatrix type="matrix" values="0 0 0 0 1 0 0 0 0 1 0 0 0 0 1 0 0 0 1 0"/>
<feBlend mode="normal" in2="BackgroundImageFix" result="effect1_dropShadow_11_246"/>
<feBlend mode="normal" in="SourceGraphic" in2="effect1_dropShadow_11_246" result="shape"/>
</filter>
</defs>
</svg>
