<svg width="229" height="64" viewBox="0 0 229 64" fill="none" xmlns="http://www.w3.org/2000/svg">
<g filter="url(#filter0_d_12_272)">
<rect width="225" height="60" fill="#AEB798" shape-rendering="crispEdges"/>
<rect x="0.5" y="0.5" width="224" height="59" stroke="#1A0000" shape-rendering="crispEdges"/>
<path d="M55.3923 37.24C53.5123 37.24 51.8523 36.52 50.8323 35.2L52.6323 33.04C53.3923 34.06 54.2323 34.58 55.2323 34.58C56.5323 34.58 57.2123 33.8 57.2123 32.26V25.6H52.2923V23H60.4323V32.08C60.4323 35.54 58.6923 37.24 55.3923 37.24ZM73.9527 31.66C73.9527 31.9 73.9127 32.24 73.8927 32.5H65.7527C66.0527 33.84 67.1927 34.66 68.8327 34.66C69.9727 34.66 70.7927 34.32 71.5327 33.62L73.1927 35.42C72.1927 36.56 70.6927 37.16 68.7527 37.16C65.0327 37.16 62.6127 34.82 62.6127 31.62C62.6127 28.4 65.0727 26.08 68.3527 26.08C71.5127 26.08 73.9527 28.2 73.9527 31.66ZM68.3727 28.44C66.9527 28.44 65.9327 29.3 65.7127 30.68H71.0127C70.7927 29.32 69.7727 28.44 68.3727 28.44ZM95.4739 26.08C98.0339 26.08 99.8739 27.56 99.8739 30.84V37H96.7539V31.32C96.7539 29.58 95.9739 28.78 94.7139 28.78C93.3139 28.78 92.3339 29.68 92.3339 31.6V37H89.2139V31.32C89.2139 29.58 88.4739 28.78 87.1739 28.78C85.7939 28.78 84.8139 29.68 84.8139 31.6V37H81.6939V26.24H84.6739V27.48C85.4739 26.56 86.6739 26.08 88.0539 26.08C89.5539 26.08 90.8339 26.66 91.5939 27.84C92.4539 26.74 93.8539 26.08 95.4739 26.08ZM103.792 22C104.912 22 105.712 22.78 105.712 23.92C105.712 24.44 105.632 24.82 105.192 25.92L104.032 28.8H102.052L102.912 25.64C102.272 25.36 101.852 24.76 101.852 23.92C101.852 22.76 102.692 22 103.792 22ZM109.387 24.74C108.227 24.74 107.447 23.98 107.447 23C107.447 22.02 108.227 21.26 109.387 21.26C110.547 21.26 111.327 21.98 111.327 22.94C111.327 23.98 110.547 24.74 109.387 24.74ZM107.827 37V26.24H110.947V37H107.827ZM120.382 26.08C122.922 26.08 124.842 27.56 124.842 30.84V37H121.722V31.32C121.722 29.58 120.922 28.78 119.542 28.78C118.042 28.78 116.962 29.7 116.962 31.68V37H113.842V26.24H116.822V27.5C117.662 26.58 118.922 26.08 120.382 26.08ZM131.29 37.16C129.47 37.16 127.63 36.66 126.63 36L127.67 33.76C128.63 34.38 130.09 34.8 131.41 34.8C132.85 34.8 133.39 34.42 133.39 33.82C133.39 32.06 126.89 33.86 126.89 29.56C126.89 27.52 128.73 26.08 131.87 26.08C133.35 26.08 134.99 26.42 136.01 27.02L134.97 29.24C133.91 28.64 132.85 28.44 131.87 28.44C130.47 28.44 129.87 28.88 129.87 29.44C129.87 31.28 136.37 29.5 136.37 33.74C136.37 35.74 134.51 37.16 131.29 37.16ZM143.495 37.16C139.995 37.16 137.495 34.86 137.495 31.62C137.495 28.38 139.995 26.08 143.495 26.08C145.755 26.08 147.535 27.06 148.315 28.82L145.895 30.12C145.315 29.1 144.455 28.64 143.475 28.64C141.895 28.64 140.655 29.74 140.655 31.62C140.655 33.5 141.895 34.6 143.475 34.6C144.455 34.6 145.315 34.16 145.895 33.12L148.315 34.44C147.535 36.16 145.755 37.16 143.495 37.16ZM153.092 27.66C153.852 26.62 155.132 26.08 156.792 26.08V28.96C156.532 28.94 156.332 28.92 156.092 28.92C154.372 28.92 153.232 29.86 153.232 31.92V37H150.112V26.24H153.092V27.66ZM160.207 24.74C159.047 24.74 158.267 23.98 158.267 23C158.267 22.02 159.047 21.26 160.207 21.26C161.367 21.26 162.147 21.98 162.147 22.94C162.147 23.98 161.367 24.74 160.207 24.74ZM158.647 37V26.24H161.767V37H158.647ZM168.283 37.16C166.463 37.16 164.623 36.66 163.623 36L164.663 33.76C165.623 34.38 167.083 34.8 168.403 34.8C169.843 34.8 170.383 34.42 170.383 33.82C170.383 32.06 163.883 33.86 163.883 29.56C163.883 27.52 165.723 26.08 168.863 26.08C170.343 26.08 171.983 26.42 173.003 27.02L171.963 29.24C170.903 28.64 169.843 28.44 168.863 28.44C167.463 28.44 166.863 28.88 166.863 29.44C166.863 31.28 173.363 29.5 173.363 33.74C173.363 35.74 171.503 37.16 168.283 37.16Z" fill="#23221E"/>
</g>
<defs>
<filter id="filter0_d_12_272" x="0" y="0" width="229" height="64" filterUnits="userSpaceOnUse" color-interpolation-filters="sRGB">
<feFlood flood-opacity="0" result="BackgroundImageFix"/>
<feColorMatrix in="SourceAlpha" type="matrix" values="0 0 0 0 0 0 0 0 0 0 0 0 0 0 0 0 0 0 127 0" result="hardAlpha"/>
<feOffset dx="4" dy="4"/>
<feComposite in2="hardAlpha" operator="out"/>
<feColorMatrix type="matrix" values="0 0 0 0 1 0 0 0 0 1 0 0 0 0 1 0 0 0 1 0"/>
<feBlend mode="normal" in2="BackgroundImageFix" result="effect1_dropShadow_12_272"/>
<feBlend mode="normal" in="SourceGraphic" in2="effect1_dropShadow_12_272" result="shape"/>
</filter>
</defs>
</svg>
