<svg width="44" height="48" viewBox="0 0 44 48" fill="none" xmlns="http://www.w3.org/2000/svg">
<g id="header">
<path id="Fill 5" fill-rule="evenodd" clip-rule="evenodd" d="M13.3285 10.1159C13.3285 6.70589 16.0728 3.93166 19.4459 3.93166H24.3399C27.7131 3.93166 30.4574 6.70589 30.4574 10.1159V12.1171C27.6018 12.028 24.7474 11.9711 21.8929 11.9711C19.0373 11.9711 16.1829 12.028 13.3285 12.1171V10.1159ZM34.1279 12.2544V10.1159C34.1279 4.6515 29.7453 0.22113 24.3399 0.22113H19.4459C14.0393 0.22113 9.65797 4.6515 9.65797 10.1159V12.2544C6.57354 12.3917 3.48912 12.571 0.404684 12.8109C0.259088 22.7811 1.47769 32.9208 3.50502 43.1866C3.95772 45.1717 5.76359 46.7511 7.70038 46.855C12.4316 47.0999 17.1617 47.2211 21.8929 47.2211C26.6242 47.2211 31.3542 47.0999 36.0855 46.855C38.0223 46.7511 39.8282 45.1704 40.2809 43.1866C42.3082 32.9208 43.5268 22.7811 43.3812 12.8109C40.2968 12.571 37.2123 12.3917 34.1279 12.2544Z" fill="#ECEBBD"/>
</g>
</svg>
