<svg width="43" height="47" viewBox="0 0 43 47" fill="none" xmlns="http://www.w3.org/2000/svg">
<rect width="43" height="47" fill="#F5F5F5"/>
<g id="Icones">
<path d="M-299 -589C-299 -590.105 -298.105 -591 -297 -591H1139C1140.1 -591 1141 -590.105 1141 -589V775C1141 776.105 1140.1 777 1139 777H-297C-298.105 777 -299 776.105 -299 775V-589Z" fill="#23221E"/>
<path d="M-297 -590H1139V-592H-297V-590ZM1140 -589V775H1142V-589H1140ZM1139 776H-297V778H1139V776ZM-298 775V-589H-300V775H-298ZM-297 776C-297.552 776 -298 775.552 -298 775H-300C-300 776.657 -298.657 778 -297 778V776ZM1140 775C1140 775.552 1139.55 776 1139 776V778C1140.66 778 1142 776.657 1142 775H1140ZM1139 -590C1139.55 -590 1140 -589.552 1140 -589H1142C1142 -590.657 1140.66 -592 1139 -592V-590ZM-297 -592C-298.657 -592 -300 -590.657 -300 -589H-298C-298 -589.552 -297.552 -590 -297 -590V-592Z" fill="black" fill-opacity="0.1"/>
<g id="header">
<rect x="-19.5" y="-19.5" width="394.214" height="87.6987" rx="4.5" stroke="#9747FF" stroke-dasharray="10 5"/>
<g id="icones=panier, Color=cream">
<path id="Fill 5" fill-rule="evenodd" clip-rule="evenodd" d="M12.9355 9.89474C12.9355 6.48476 15.6798 3.71053 19.053 3.71053H23.947C27.3202 3.71053 30.0645 6.48476 30.0645 9.89474V11.8959C27.2088 11.8069 24.3544 11.75 21.5 11.75C18.6444 11.75 15.7899 11.8069 12.9355 11.8959V9.89474ZM33.735 12.0332V9.89474C33.735 4.43037 29.3524 0 23.947 0H19.053C13.6464 0 9.26503 4.43037 9.26503 9.89474V12.0332C6.1806 12.1705 3.09617 12.3499 0.01174 12.5898C-0.133856 22.56 1.08475 32.6996 3.11208 42.9654C3.56477 44.9506 5.37064 46.53 7.30744 46.6339C12.0387 46.8788 16.7687 47 21.5 47C26.2313 47 30.9613 46.8788 35.6926 46.6339C37.6293 46.53 39.4352 44.9493 39.8879 42.9654C41.9153 32.6996 43.1339 22.56 42.9883 12.5898C39.9038 12.3499 36.8194 12.1705 33.735 12.0332Z" fill="#ECEBBD"/>
</g>
</g>
</g>
</svg>
