<svg width="57" height="57" viewBox="0 0 57 57" fill="none" xmlns="http://www.w3.org/2000/svg">
<rect width="57" height="57" fill="#F5F5F5"/>
<g id="Icones">
<path d="M-299 -754C-299 -755.105 -298.105 -756 -297 -756H1139C1140.1 -756 1141 -755.105 1141 -754V610C1141 611.105 1140.1 612 1139 612H-297C-298.105 612 -299 611.105 -299 610V-754Z" fill="#23221E"/>
<path d="M-297 -755H1139V-757H-297V-755ZM1140 -754V610H1142V-754H1140ZM1139 611H-297V613H1139V611ZM-298 610V-754H-300V610H-298ZM-297 611C-297.552 611 -298 610.552 -298 610H-300C-300 611.657 -298.657 613 -297 613V611ZM1140 610C1140 610.552 1139.55 611 1139 611V613C1140.66 613 1142 611.657 1142 610H1140ZM1139 -755C1139.55 -755 1140 -754.552 1140 -754H1142C1142 -755.657 1140.66 -757 1139 -757V-755ZM-297 -757C-298.657 -757 -300 -755.657 -300 -754H-298C-298 -754.552 -297.552 -755 -297 -755V-757Z" fill="black" fill-opacity="0.1"/>
<g id="direction">
<rect x="-19.5" y="-19.5" width="367" height="96" rx="4.5" stroke="#9747FF" stroke-dasharray="10 5"/>
<g id="Property 1=card">
<path id="Vector" d="M28.7925 6H28.2075C15.9675 6 6 15.9675 6 28.2075V28.7925C6 41.0325 15.9675 51 28.2075 51H28.7925C41.0325 51 51 41.0325 51 28.7925V28.2075C51 15.9675 41.0325 6 28.7925 6ZM36.645 29.6925L31.11 35.25C30.7725 35.565 30.345 35.745 29.9175 35.745C29.49 35.745 29.04 35.565 28.725 35.25C28.05 34.575 28.05 33.5175 28.725 32.865L31.38 30.1875H21.5475C20.6025 30.1875 19.86 29.4225 19.86 28.5C19.86 27.5775 20.6025 26.8125 21.5475 26.8125H31.38L28.725 24.135C28.05 23.4825 28.05 22.425 28.725 21.75C29.3775 21.0975 30.435 21.0975 31.11 21.75L36.645 27.3075C37.32 27.96 37.32 29.04 36.645 29.6925Z" fill="#ECEBBD"/>
</g>
</g>
</g>
</svg>
