<svg width="27" height="27" viewBox="0 0 27 27" fill="none" xmlns="http://www.w3.org/2000/svg">
<path d="M26.8682 7.84988C26.8531 6.73318 26.6408 5.62758 26.241 4.58254C25.8942 3.70105 25.3646 2.9005 24.686 2.23204C24.0074 1.56358 23.1947 1.04191 22.2998 0.700356C21.2525 0.313106 20.1461 0.103714 19.0277 0.0810939C17.5878 0.0176933 17.1313 0 13.476 0C9.82072 0 9.35221 9.88684e-08 7.92274 0.0810939C6.80484 0.10388 5.69896 0.31327 4.65216 0.700356C3.75714 1.04167 2.9443 1.56326 2.26566 2.23175C1.58701 2.90024 1.0575 3.70091 0.710995 4.58254C0.317076 5.61336 0.104963 6.70294 0.0838226 7.80417C0.0194588 9.22405 0 9.67376 0 13.2743C0 16.8749 -1.11523e-08 17.3349 0.0838226 18.7445C0.106275 19.8473 0.317328 20.9355 0.710995 21.9691C1.05808 22.8504 1.58798 23.6508 2.26686 24.319C2.94573 24.9872 3.75864 25.5085 4.65365 25.8498C5.69759 26.2526 6.80366 26.477 7.92423 26.5133C9.36568 26.5767 9.82222 26.5958 13.4775 26.5958C17.1327 26.5958 17.6013 26.5958 19.0307 26.5133C20.1491 26.4916 21.2556 26.2827 22.3028 25.8955C23.1975 25.5535 24.01 25.0317 24.6885 24.3633C25.3671 23.6949 25.8968 22.8945 26.244 22.0133C26.6376 20.9812 26.8487 19.8931 26.8711 18.7887C26.9355 17.3703 26.955 16.9206 26.955 13.3186C26.952 9.71799 26.952 9.26091 26.8682 7.84988ZM13.467 20.0833C9.6441 20.0833 6.54715 17.0326 6.54715 13.2669C6.54715 9.50125 9.6441 6.45064 13.467 6.45064C15.3023 6.45064 17.0624 7.16879 18.3601 8.44709C19.6578 9.7254 20.3869 11.4592 20.3869 13.2669C20.3869 15.0747 19.6578 16.8085 18.3601 18.0868C17.0624 19.3651 15.3023 20.0833 13.467 20.0833ZM20.6623 7.78795C20.4503 7.78815 20.2404 7.74717 20.0446 7.66736C19.8487 7.58755 19.6707 7.47048 19.5209 7.32285C19.371 7.17522 19.2521 6.99993 19.1711 6.807C19.0901 6.61407 19.0485 6.4073 19.0487 6.19852C19.0487 5.98989 19.0904 5.7833 19.1715 5.59055C19.2525 5.3978 19.3713 5.22266 19.5211 5.07513C19.6709 4.92761 19.8486 4.81059 20.0443 4.73075C20.24 4.65091 20.4497 4.60982 20.6615 4.60982C20.8733 4.60982 21.0831 4.65091 21.2787 4.73075C21.4744 4.81059 21.6522 4.92761 21.802 5.07513C21.9517 5.22266 22.0705 5.3978 22.1516 5.59055C22.2327 5.7833 22.2744 5.98989 22.2744 6.19852C22.2744 7.07728 21.5529 7.78795 20.6623 7.78795Z" fill="#ECEBBD"/>
<path d="M13.467 17.6948C15.9495 17.6948 17.962 15.7124 17.962 13.2671C17.962 10.8217 15.9495 8.83936 13.467 8.83936C10.9845 8.83936 8.97205 10.8217 8.97205 13.2671C8.97205 15.7124 10.9845 17.6948 13.467 17.6948Z" fill="#ECEBBD"/>
</svg>
