<svg width="38" height="38" viewBox="0 0 38 38" fill="none" xmlns="http://www.w3.org/2000/svg">
<path d="M19 37.4314C29.469 37.4314 38 29.0281 38 18.7157C38 8.40339 29.469 5.64747e-05 19 5.55594e-05C8.531 5.46442e-05 2.53771e-06 8.40339 1.63618e-06 18.7157C7.34643e-07 29.0281 8.531 37.4314 19 37.4314ZM15.998 17.8174L19.798 13.3069C20.083 12.97 20.482 12.8016 20.9 12.8016C21.223 12.8016 21.546 12.8951 21.812 13.1197C22.401 13.6063 22.496 14.486 22.002 15.0849L18.943 18.7157L22.002 22.3466C22.496 22.9455 22.401 23.8251 21.812 24.3117C21.204 24.817 20.292 24.7235 19.798 24.1246L15.998 19.6141C15.561 19.09 15.561 18.3414 15.998 17.8174Z" fill="#23221E"/>
</svg>
