<svg width="57" height="57" viewBox="0 0 57 57" fill="none" xmlns="http://www.w3.org/2000/svg">
<path d="M51 28.7925L51 28.2075C51 15.9675 41.0325 6 28.7925 6L28.2075 6C15.9675 6 6 15.9675 6 28.2075L6 28.7925C6 41.0325 15.9675 51 28.2075 51L28.7925 51C41.0325 51 51 41.0325 51 28.7925ZM27.3075 36.645L21.75 31.11C21.435 30.7725 21.255 30.345 21.255 29.9175C21.255 29.49 21.435 29.04 21.75 28.725C22.425 28.05 23.4825 28.05 24.135 28.725L26.8125 31.38L26.8125 21.5475C26.8125 20.6025 27.5775 19.86 28.5 19.86C29.4225 19.86 30.1875 20.6025 30.1875 21.5475L30.1875 31.38L32.865 28.725C33.5175 28.05 34.575 28.05 35.25 28.725C35.9025 29.3775 35.9025 30.435 35.25 31.11L29.6925 36.645C29.04 37.32 27.96 37.32 27.3075 36.645Z" fill="#23221E"/>
</svg>
