<svg width="28" height="22" viewBox="0 0 28 22" fill="none" xmlns="http://www.w3.org/2000/svg">
<path d="M27.7339 3.40451C27.3644 3.92642 26.9448 4.41518 26.4803 4.86464C26.0135 5.31698 25.5064 5.73066 24.9645 6.10112C24.9819 6.32926 24.9909 6.5579 24.9915 6.78663C24.9915 7.83036 24.8738 8.86137 24.6366 9.88146C24.4002 10.8979 24.0552 11.8891 23.6067 12.8399C22.9856 14.1795 22.1648 15.4286 21.169 16.5493C20.2147 17.6211 19.0968 18.5531 17.8519 19.315C16.6026 20.0751 15.2411 20.6572 13.8115 21.0425C12.3198 21.445 10.7751 21.6464 9.22346 21.6407C7.72712 21.6425 6.23812 21.4435 4.80124 21.0497C3.36116 20.6545 1.99067 20.0614 0.733887 19.2896C2.1845 19.4549 3.65547 19.3489 5.06258 18.9776C6.46969 18.6063 7.78533 17.977 8.93417 17.1257C8.07471 17.1144 7.23013 16.9127 6.46863 16.5368C5.70714 16.1609 5.05008 15.6214 4.55053 14.9619C4.20981 14.5187 3.94494 14.0279 3.7656 13.5072C3.9411 13.5327 4.11467 13.5545 4.28632 13.5709C4.94828 13.632 5.61652 13.5771 6.25732 13.409C5.62524 13.2915 5.02048 13.0686 4.47146 12.7508C3.93947 12.4426 3.4651 12.0537 3.06746 11.5998C2.25113 10.6679 1.8075 9.49542 1.81389 8.28677V8.22676C2.58917 8.63953 3.4281 8.85955 4.3326 8.885C3.5784 8.40063 2.95918 7.75194 2.52746 6.99392C2.31604 6.62007 2.15226 6.22395 2.03953 5.81382C1.80991 4.94589 1.81456 4.03756 2.05303 3.17176C2.17453 2.7299 2.36353 2.30987 2.62003 1.91165C3.32203 2.73172 4.10503 3.46815 4.96517 4.1173C6.67468 5.40994 8.65001 6.35416 10.7663 6.89028C11.8345 7.16017 12.9305 7.32051 14.0352 7.3685C13.9819 7.17451 13.9446 6.97694 13.9234 6.77754C13.9017 6.57757 13.8907 6.37669 13.8906 6.17567C13.8906 5.45379 14.0352 4.77554 14.3265 4.14276C14.8911 2.8924 15.9472 1.89667 17.2733 1.36433C17.9539 1.08968 18.6873 0.9504 19.4275 0.955198C20.1868 0.951716 20.9387 1.09681 21.6354 1.38132C22.3322 1.66583 22.9588 2.08355 23.4756 2.60807C24.7129 2.37777 25.8989 1.94843 26.9817 1.33887C26.5803 2.55056 25.7156 3.57837 24.5556 4.22277C25.6525 4.10257 26.7239 3.82734 27.7339 3.40633V3.40451Z" fill="#ECEBBD"/>
</svg>
