<svg width="100" height="94" viewBox="0 0 100 94" fill="none" xmlns="http://www.w3.org/2000/svg">
<path d="M95.7436 0.000585986L89.1867 0C89.1867 0 89.1865 0 89.1861 0C88.0574 0 86.9746 0.448632 86.1766 1.24687L60.3321 27.0905L2.96612 45.3497C1.33604 45.8686 0.174719 47.3127 0.0180789 49.0164C-0.138561 50.7201 0.739952 52.3518 2.24815 53.1592L27.0223 66.4211L40.2834 91.1944C41.0289 92.5866 42.4767 93.4423 44.0353 93.4423C44.165 93.4423 44.2953 93.4362 44.4261 93.4245C46.13 93.2675 47.5742 92.1065 48.0929 90.4763L66.352 33.1106L90.9494 8.51364L95.7432 8.51384H95.7434C98.0943 8.51384 100 6.60818 100 4.2576C100 1.90683 98.0945 0.000781298 95.7436 0.000585986ZM43.0351 78.2953L33.9201 61.2672C33.524 60.5266 32.917 59.9197 32.1762 59.5231L15.1465 50.4073L47.225 40.1966L41.539 45.8825C39.8765 47.545 39.8765 50.2401 41.5388 51.9028C42.3703 52.734 43.4595 53.1496 44.5486 53.1494C45.6381 53.1494 46.7275 52.7336 47.5587 51.9028L53.2453 46.2163L43.0351 78.2953Z" fill="#AEB798"/>
</svg>
