<svg width="57" height="57" viewBox="0 0 57 57" fill="none" xmlns="http://www.w3.org/2000/svg">
<g id="direction">
<path id="Vector" d="M28.7925 6H28.2075C15.9675 6 6 15.9675 6 28.2075V28.7925C6 41.0325 15.9675 51 28.2075 51H28.7925C41.0325 51 51 41.0325 51 28.7925V28.2075C51 15.9675 41.0325 6 28.7925 6ZM36.645 29.6925L31.11 35.25C30.7725 35.565 30.345 35.745 29.9175 35.745C29.49 35.745 29.04 35.565 28.725 35.25C28.05 34.575 28.05 33.5175 28.725 32.865L31.38 30.1875H21.5475C20.6025 30.1875 19.86 29.4225 19.86 28.5C19.86 27.5775 20.6025 26.8125 21.5475 26.8125H31.38L28.725 24.135C28.05 23.4825 28.05 22.425 28.725 21.75C29.3775 21.0975 30.435 21.0975 31.11 21.75L36.645 27.3075C37.32 27.96 37.32 29.04 36.645 29.6925Z" fill="#ECEBBD"/>
</g>
</svg>
