<svg width="28" height="22" viewBox="0 0 28 22" fill="none" xmlns="http://www.w3.org/2000/svg">
<g id="social">
<path id="Vector" d="M27.955 3.10641C27.5854 3.62832 27.1658 4.11709 26.7014 4.56655C26.2346 5.01888 25.7274 5.43257 25.1855 5.80302C25.2029 6.03116 25.2119 6.25981 25.2125 6.48854C25.2125 7.53227 25.0949 8.56327 24.8577 9.58336C24.6213 10.5998 24.2763 11.591 23.8278 12.5418C23.2067 13.8814 22.3858 15.1305 21.3901 16.2512C20.4358 17.323 19.3179 18.2551 18.073 19.0169C16.8236 19.777 15.4622 20.3591 14.0326 20.7444C12.5409 21.1469 10.9962 21.3483 9.44453 21.3426C7.94819 21.3444 6.45919 21.1454 5.02231 20.7516C3.58223 20.3564 2.21174 19.7633 0.954956 18.9915C2.40557 19.1568 3.87654 19.0508 5.28365 18.6795C6.69076 18.3082 8.00639 17.6789 9.15524 16.8277C8.29578 16.8163 7.4512 16.6146 6.6897 16.2387C5.92821 15.8628 5.27115 15.3233 4.7716 14.6638C4.43088 14.2206 4.16601 13.7298 3.98667 13.2091C4.16217 13.2346 4.33574 13.2564 4.50738 13.2728C5.16935 13.3339 5.83759 13.279 6.47838 13.111C5.84631 12.9934 5.24155 12.7705 4.69253 12.4527C4.16054 12.1445 3.68617 11.7556 3.28853 11.3017C2.4722 10.3698 2.02857 9.19733 2.03496 7.98867V7.92867C2.81024 8.34143 3.64917 8.56145 4.55367 8.58691C3.79947 8.10254 3.18025 7.45384 2.74853 6.69583C2.53711 6.32197 2.37333 5.92585 2.2606 5.51572C2.03098 4.6478 2.03562 3.73946 2.2741 2.87367C2.3956 2.43181 2.5846 2.01177 2.8411 1.61355C3.5431 2.43363 4.3261 3.17006 5.18624 3.81921C6.89575 5.11185 8.87108 6.05607 10.9874 6.59218C12.0556 6.86207 13.1516 7.02241 14.2563 7.07041C14.203 6.87641 14.1656 6.67884 14.1445 6.47944C14.1227 6.27947 14.1118 6.07859 14.1117 5.87757C14.1117 5.15569 14.2563 4.47745 14.5475 3.84466C15.1121 2.5943 16.1682 1.59857 17.4944 1.06623C18.175 0.791584 18.9083 0.652304 19.6486 0.657102C20.4079 0.65362 21.1597 0.798719 21.8565 1.08322C22.5533 1.36773 23.1799 1.78545 23.6967 2.30998C24.934 2.07967 26.12 1.65034 27.2028 1.04077C26.8014 2.25246 25.9367 3.28028 24.7767 3.92467C25.8736 3.80447 26.945 3.52924 27.955 3.10823V3.10641Z" fill="#ECEBBD"/>
</g>
</svg>
